<svg width="256" height="57" viewBox="0 0 256 57" fill="none" xmlns="http://www.w3.org/2000/svg">
<path d="M78.27 21.95V27.2H85.32V30.53H78.27V36.08H86.22V39.5H74.07V18.53H86.22V21.95H78.27ZM89.5568 31.13C89.5568 29.45 89.8868 27.96 90.5468 26.66C91.2268 25.36 92.1468 24.36 93.3068 23.66C94.4668 22.96 95.7568 22.61 97.1768 22.61C98.2568 22.61 99.2868 22.85 100.267 23.33C101.247 23.79 102.027 24.41 102.607 25.19V17.3H106.867V39.5H102.607V37.04C102.087 37.86 101.357 38.52 100.417 39.02C99.4768 39.52 98.3868 39.77 97.1468 39.77C95.7468 39.77 94.4668 39.41 93.3068 38.69C92.1468 37.97 91.2268 36.96 90.5468 35.66C89.8868 34.34 89.5568 32.83 89.5568 31.13ZM102.637 31.19C102.637 30.17 102.437 29.3 102.037 28.58C101.637 27.84 101.097 27.28 100.417 26.9C99.7368 26.5 99.0068 26.3 98.2268 26.3C97.4468 26.3 96.7268 26.49 96.0668 26.87C95.4068 27.25 94.8668 27.81 94.4468 28.55C94.0468 29.27 93.8468 30.13 93.8468 31.13C93.8468 32.13 94.0468 33.01 94.4468 33.77C94.8668 34.51 95.4068 35.08 96.0668 35.48C96.7468 35.88 97.4668 36.08 98.2268 36.08C99.0068 36.08 99.7368 35.89 100.417 35.51C101.097 35.11 101.637 34.55 102.037 33.83C102.437 33.09 102.637 32.21 102.637 31.19ZM127.259 22.88V39.5H123.029V37.4C122.489 38.12 121.779 38.69 120.899 39.11C120.039 39.51 119.099 39.71 118.079 39.71C116.779 39.71 115.629 39.44 114.629 38.9C113.629 38.34 112.839 37.53 112.259 36.47C111.699 35.39 111.419 34.11 111.419 32.63V22.88H115.619V32.03C115.619 33.35 115.949 34.37 116.609 35.09C117.269 35.79 118.169 36.14 119.309 36.14C120.469 36.14 121.379 35.79 122.039 35.09C122.699 34.37 123.029 33.35 123.029 32.03V22.88H127.259ZM152.643 22.64C154.683 22.64 156.323 23.27 157.563 24.53C158.823 25.77 159.453 27.51 159.453 29.75V39.5H155.253V30.32C155.253 29.02 154.923 28.03 154.263 27.35C153.603 26.65 152.703 26.3 151.563 26.3C150.423 26.3 149.513 26.65 148.833 27.35C148.173 28.03 147.843 29.02 147.843 30.32V39.5H143.643V30.32C143.643 29.02 143.313 28.03 142.653 27.35C141.993 26.65 141.093 26.3 139.953 26.3C138.793 26.3 137.873 26.65 137.193 27.35C136.533 28.03 136.203 29.02 136.203 30.32V39.5H132.003V22.88H136.203V24.89C136.743 24.19 137.433 23.64 138.273 23.24C139.133 22.84 140.073 22.64 141.093 22.64C142.393 22.64 143.553 22.92 144.573 23.48C145.593 24.02 146.383 24.8 146.943 25.82C147.483 24.86 148.263 24.09 149.283 23.51C150.323 22.93 151.443 22.64 152.643 22.64ZM162.958 31.13C162.958 29.45 163.288 27.96 163.948 26.66C164.628 25.36 165.538 24.36 166.678 23.66C167.838 22.96 169.128 22.61 170.548 22.61C171.788 22.61 172.868 22.86 173.788 23.36C174.728 23.86 175.478 24.49 176.038 25.25V22.88H180.268V39.5H176.038V37.07C175.498 37.85 174.748 38.5 173.788 39.02C172.848 39.52 171.758 39.77 170.518 39.77C169.118 39.77 167.838 39.41 166.678 38.69C165.538 37.97 164.628 36.96 163.948 35.66C163.288 34.34 162.958 32.83 162.958 31.13ZM176.038 31.19C176.038 30.17 175.838 29.3 175.438 28.58C175.038 27.84 174.498 27.28 173.818 26.9C173.138 26.5 172.408 26.3 171.628 26.3C170.848 26.3 170.128 26.49 169.468 26.87C168.808 27.25 168.268 27.81 167.848 28.55C167.448 29.27 167.248 30.13 167.248 31.13C167.248 32.13 167.448 33.01 167.848 33.77C168.268 34.51 168.808 35.08 169.468 35.48C170.148 35.88 170.868 36.08 171.628 36.08C172.408 36.08 173.138 35.89 173.818 35.51C174.498 35.11 175.038 34.55 175.438 33.83C175.838 33.09 176.038 32.21 176.038 31.19ZM194.18 22.64C196.16 22.64 197.76 23.27 198.98 24.53C200.2 25.77 200.81 27.51 200.81 29.75V39.5H196.61V30.32C196.61 29 196.28 27.99 195.62 27.29C194.96 26.57 194.06 26.21 192.92 26.21C191.76 26.21 190.84 26.57 190.16 27.29C189.5 27.99 189.17 29 189.17 30.32V39.5H184.97V22.88H189.17V24.95C189.73 24.23 190.44 23.67 191.3 23.27C192.18 22.85 193.14 22.64 194.18 22.64ZM211.914 22.61C213.154 22.61 214.244 22.86 215.184 23.36C216.124 23.84 216.864 24.47 217.404 25.25V22.88H221.634V39.62C221.634 41.16 221.324 42.53 220.704 43.73C220.084 44.95 219.154 45.91 217.914 46.61C216.674 47.33 215.174 47.69 213.414 47.69C211.054 47.69 209.114 47.14 207.594 46.04C206.094 44.94 205.244 43.44 205.044 41.54H209.214C209.434 42.3 209.904 42.9 210.624 43.34C211.364 43.8 212.254 44.03 213.294 44.03C214.514 44.03 215.504 43.66 216.264 42.92C217.024 42.2 217.404 41.1 217.404 39.62V37.04C216.864 37.82 216.114 38.47 215.154 38.99C214.214 39.51 213.134 39.77 211.914 39.77C210.514 39.77 209.234 39.41 208.074 38.69C206.914 37.97 205.994 36.96 205.314 35.66C204.654 34.34 204.324 32.83 204.324 31.13C204.324 29.45 204.654 27.96 205.314 26.66C205.994 25.36 206.904 24.36 208.044 23.66C209.204 22.96 210.494 22.61 211.914 22.61ZM217.404 31.19C217.404 30.17 217.204 29.3 216.804 28.58C216.404 27.84 215.864 27.28 215.184 26.9C214.504 26.5 213.774 26.3 212.994 26.3C212.214 26.3 211.494 26.49 210.834 26.87C210.174 27.25 209.634 27.81 209.214 28.55C208.814 29.27 208.614 30.13 208.614 31.13C208.614 32.13 208.814 33.01 209.214 33.77C209.634 34.51 210.174 35.08 210.834 35.48C211.514 35.88 212.234 36.08 212.994 36.08C213.774 36.08 214.504 35.89 215.184 35.51C215.864 35.11 216.404 34.55 216.804 33.83C217.204 33.09 217.404 32.21 217.404 31.19ZM241.786 30.83C241.786 31.43 241.746 31.97 241.666 32.45H229.516C229.616 33.65 230.036 34.59 230.776 35.27C231.516 35.95 232.426 36.29 233.506 36.29C235.066 36.29 236.176 35.62 236.836 34.28H241.366C240.886 35.88 239.966 37.2 238.606 38.24C237.246 39.26 235.576 39.77 233.596 39.77C231.996 39.77 230.556 39.42 229.276 38.72C228.016 38 227.026 36.99 226.306 35.69C225.606 34.39 225.256 32.89 225.256 31.19C225.256 29.47 225.606 27.96 226.306 26.66C227.006 25.36 227.986 24.36 229.246 23.66C230.506 22.96 231.956 22.61 233.596 22.61C235.176 22.61 236.586 22.95 237.826 23.63C239.086 24.31 240.056 25.28 240.736 26.54C241.436 27.78 241.786 29.21 241.786 30.83ZM237.436 29.63C237.416 28.55 237.026 27.69 236.266 27.05C235.506 26.39 234.576 26.06 233.476 26.06C232.436 26.06 231.556 26.38 230.836 27.02C230.136 27.64 229.706 28.51 229.546 29.63H237.436ZM249.652 25.46C250.192 24.58 250.892 23.89 251.752 23.39C252.632 22.89 253.632 22.64 254.752 22.64V27.05H253.642C252.322 27.05 251.322 27.36 250.642 27.98C249.982 28.6 249.652 29.68 249.652 31.22V39.5H245.452V22.88H249.652V25.46Z" fill="black"/>
<rect y="0.5" width="56" height="56" rx="28" fill="#ED9526"/>
<g clip-path="url(#clip0_1_1128)">
<rect x="12" y="13" width="32" height="32" fill="white"/>
</g>
<defs>
<clipPath id="clip0_1_1128">
<rect width="32" height="32" fill="white" transform="translate(12 12.5)"/>
</clipPath>
</defs>
</svg>
